#!OML:ASF X:\für Bonn\!DataBase\2005_08_11_Bastian_Final\c3d\Bastian.ASF
:FULLY-SPECIFIED
:DEGREES
641
root 0.564934 1.16146 20.4504 -635.145 -0.418325 -178.99
lowerback 4.8306 -1.29698 4.13896
upperback 6.18196 -2.13795 1.89291
thorax 3.62444 -1.15464 -0.337923
lowerneck -21.6917 -3.45605 -4.86712
upperneck 2.47204 -4.07954 4.97028
head 4.34059 -1.89162 1.93261
rclavicle 3.26007e-014 -1.42131e-014
rhumerus -60.7184 51.1466 -114.157
rradius 25.6831
rwrist -10.7198
rhand -12.1368 -1.66155
rfingers 7.12502
rthumb 13.9252 -31.1753
lclavicle 3.26007e-014 -1.42131e-014
lhumerus -40.7196 -37.9721 103.989
lradius 16.7271
lwrist 21.8709
lhand -9.61251 -2.79781
lfingers 7.12502
lthumb 16.3568 26.5324
rfemur -5.04366 6.51997 22.4337
rtibia 31.3953
rfoot -13.1797 -24.8479
rtoes 0.419665
lfemur -1.09183 3.27774 -15.2873
ltibia 21.9127
lfoot -2.13808 9.42808
ltoes -4.69698
642
root 0.564915 1.16145 20.4512 -635.099 -0.42075 -178.991
lowerback 4.78232 -1.3006 4.13904
upperback 6.16992 -2.14268 1.88563
thorax 3.6383 -1.15553 -0.34662
lowerneck -21.7094 -3.44812 -4.82276
upperneck 2.50356 -4.0764 4.93521
head 4.35118 -1.89102 1.91449
rclavicle -1.23246e-014 5.66536e-014
rhumerus -60.8304 51.2044 -114.278
rradius 25.7274
rwrist -10.7668
rhand -12.1684 -1.67865
rfingers 7.12502
rthumb 13.8947 -31.1945
lclavicle -1.23246e-014 5.66536e-014
lhumerus -40.7786 -38.0211 104.03
lradius 16.7543
lwrist 21.9179
lhand -9.63003 -2.82626
lfingers 7.12502
lthumb 16.3399 26.5054
rfemur -5.0977 6.5177 22.424
rtibia 31.3969
rfoot -13.1716 -24.8451
rtoes 0.416029
lfemur -1.14699 3.27951 -15.2935
ltibia 21.9187
lfoot -2.13299 9.41644
ltoes -4.6263
643
root 0.564715 1.16133 20.452 -635.051 -0.425263 -178.989
lowerback 4.73036 -1.29989 4.13831
upperback 6.16773 -2.14346 1.88516
thorax 3.66504 -1.15483 -0.348223
lowerneck -21.732 -3.43592 -4.78287
upperneck 2.51107 -4.06551 4.88789
head 4.35429 -1.88796 1.89406
rclavicle 1.59028e-015 -3.67752e-015
rhumerus -60.8473 51.2388 -114.306
rradius 25.7408
rwrist -10.837
rhand -12.1956 -1.68292
rfingers 7.12502
rthumb 13.8685 -31.2005
lclavicle 1.59028e-015 -3.67752e-015
lhumerus -40.7292 -37.9273 103.943
lradius 16.7867
lwrist 21.8051
lhand -9.61623 -2.81642
lfingers 7.12502
lthumb 16.3532 26.5141
rfemur -5.157 6.54065 22.4204
rtibia 31.3997
rfoot -13.1233 -24.9106
rtoes 0.165928
lfemur -1.2054 3.32385 -15.3019
ltibia 21.9249
lfoot -2.0921 9.38816
ltoes -4.90414
644
root 0.564698 1.16133 20.4529 -635.004 -0.42767 -178.989
lowerback 4.67783 -1.30083 4.1273
upperback 6.16447 -2.14716 1.89279
thorax 3.69147 -1.15636 -0.33571
lowerneck -21.7435 -3.42018 -4.75657
upperneck 2.50169 -4.04865 4.85782
head 4.35091 -1.88146 1.88205
rclavicle 4.37326e-015 3.08116e-015
rhumerus -60.8513 51.2736 -114.307
rradius 25.7491
rwrist -10.8554
rhand -12.1958 -1.68756
rfingers 7.12502
rthumb 13.8683 -31.2052
lclavicle 4.37326e-015 3.08116e-015
lhumerus -40.6887 -37.8596 103.911
lradius 16.7937
lwrist 21.7668
lhand -9.63076 -2.79516
lfingers 7.12502
lthumb 16.3392 26.5365
rfemur -5.21292 6.52681 22.4087
rtibia 31.4045
rfoot -13.1166 -24.89
rtoes 0.172157
lfemur -1.25887 3.32562 -15.3082
ltibia 21.9274
lfoot -2.06929 9.3832
ltoes -4.7509
645
root 0.564499 1.16152 20.4537 -634.957 -0.430003 -178.989
lowerback 4.64025 -1.30551 4.1295
upperback 6.14139 -2.15136 1.88543
thorax 3.68768 -1.15691 -0.345151
lowerneck -21.7216 -3.40267 -4.72381
upperneck 2.51666 -4.0319 4.83535
head 4.35047 -1.87389 1.87163
rclavicle 4.77083e-015 -5.46658e-015
rhumerus -60.8415 51.2284 -114.289
rradius 25.7414
rwrist -10.7979
rhand -12.1955 -1.67457
rfingers 7.12502
rthumb 13.8686 -31.1922
lclavicle 4.77083e-015 -5.46658e-015
lhumerus -40.73 -37.8296 103.906
lradius 16.8179
lwrist 21.7285
lhand -9.64708 -2.77785
lfingers 7.12502
lthumb 16.3235 26.5551
rfemur -5.27231 6.47912 22.395
rtibia 31.4102
rfoot -13.0504 -24.8682
rtoes -0.00250243
lfemur -1.31141 3.31178 -15.3185
ltibia 21.9295
lfoot -2.07168 9.38619
ltoes -4.71411
646
root 0.564598 1.16088 20.4543 -634.921 -0.429763 -178.989
lowerback 4.61331 -1.30473 4.13108
upperback 6.13843 -2.15096 1.88491
thorax 3.6996 -1.15604 -0.347346
lowerneck -21.7501 -3.38865 -4.65068
upperneck 2.5258 -4.0246 4.75993
head 4.35378 -1.87397 1.83663
rclavicle 2.10712e-014 4.27387e-015
rhumerus -60.9321 51.2985 -114.391
rradius 25.7918
rwrist -10.9248
rhand -12.2261 -1.69974
rfingers 7.12502
rthumb 13.8391 -31.2194
lclavicle 2.10712e-014 4.27387e-015
lhumerus -40.7526 -37.8769 103.931
lradius 16.8491
lwrist 21.7809
lhand -9.63874 -2.79127
lfingers 7.12502
lthumb 16.3315 26.5411
rfemur -5.31883 6.49097 22.393
rtibia 31.4153
rfoot -13.0505 -24.8786
rtoes 0.00450579
lfemur -1.35575 3.30592 -15.3215
ltibia 21.9304
lfoot -2.07424 9.39061
ltoes -4.70574
647
root 0.564561 1.16089 20.4551 -634.874 -0.432191 -178.99
lowerback 4.56534 -1.30597 4.12034
upperback 6.12607 -2.15363 1.89271
thorax 3.71395 -1.15696 -0.334516
lowerneck -21.7398 -3.37569 -4.63379
upperneck 2.53394 -4.00883 4.73183
head 4.35307 -1.86752 1.82675
rclavicle 1.82882e-014 -2.11706e-014
rhumerus -60.916 51.2962 -114.373
rradius 25.7802
rwrist -10.9058
rhand -12.2361 -1.7307
rfingers 7.12502
rthumb 13.8294 -31.251
lclavicle 1.82882e-014 -2.11706e-014
lhumerus -40.7556 -37.8378 103.931
lradius 16.8506
lwrist 21.7334
lhand -9.66471 -2.807
lfingers 7.12502
lthumb 16.3065 26.5274
rfemur -5.3774 6.43257 22.3789
rtibia 31.4184
rfoot -13.0185 -24.8575
rtoes -0.110015
lfemur -1.41032 3.30769 -15.3278
ltibia 21.9354
lfoot -2.06868 9.37925
ltoes -4.67688
